<svg width="23" height="22" viewBox="0 0 23 22" fill="none" xmlns="http://www.w3.org/2000/svg">
<ellipse cx="10.6619" cy="6.67153" rx="4.37986" ry="4.37986" stroke="#807A7A" stroke-width="1.5" stroke-linecap="round" stroke-linejoin="round"/>
<path fill-rule="evenodd" clip-rule="evenodd" d="M3.71452 17.1429C3.71335 16.835 3.78221 16.5309 3.9159 16.2535C4.33542 15.4145 5.51849 14.9698 6.50018 14.7684C7.20818 14.6173 7.92595 14.5164 8.64816 14.4664C9.98528 14.3489 11.3301 14.3489 12.6672 14.4664C13.3894 14.517 14.1071 14.6179 14.8152 14.7684C15.7969 14.9698 16.98 15.3725 17.3995 16.2535C17.6683 16.8189 17.6683 17.4753 17.3995 18.0407C16.98 18.9217 15.7969 19.3245 14.8152 19.5175C14.108 19.6748 13.39 19.7786 12.6672 19.8279C11.5789 19.9202 10.4855 19.937 9.39492 19.8783C9.1432 19.8783 8.89988 19.8783 8.64816 19.8279C7.92809 19.7792 7.2128 19.6754 6.50857 19.5175C5.51849 19.3245 4.34381 18.9217 3.9159 18.0407C3.78289 17.7601 3.7141 17.4534 3.71452 17.1429Z" stroke="#807A7A" stroke-width="1.5" stroke-linecap="round" stroke-linejoin="round"/>
</svg>
